<svg width="120" height="120" viewBox="0 0 120 120" fill="none" xmlns="http://www.w3.org/2000/svg">
<path d="M60.0004 103.8C84.1905 103.8 103.8 84.1899 103.8 59.9998C103.8 35.8098 84.1905 16.1998 60.0004 16.1998C35.8104 16.1998 16.2004 35.8098 16.2004 59.9998C16.2004 84.1899 35.8104 103.8 60.0004 103.8Z" fill="#62C03D"/>
<path d="M71.6667 11.4783L54.6524 11.4783C35.0057 11.4783 15.1558 25.0725 40.8802 50.4348C60.4549 69.734 81.3887 86.1449 51.615 104" stroke="#042A2B" stroke-linecap="round" stroke-linejoin="round"/>
<path d="M74.0978 20.2028H60.9321C48.1711 20.2028 43.3099 32.9854 67.4131 44.5506C93.6863 57.157 126.152 83.71 91.8236 104" stroke="#042A2B" stroke-linecap="round" stroke-linejoin="round"/>
<path d="M33.3854 94.6667H53.4375L43.7152 80.8696H49.3865L41.386 70.5217H47.3611L33.3854 53.6812L19.8147 70.5217H25.3848L17.3842 80.8696H23.0555L13.3333 94.6667H33.3854ZM33.3854 94.6667V103.188" stroke="#042A2B" stroke-linecap="round" stroke-linejoin="round"/>
<path d="M89.6934 37.5424H102.859L96.4756 28.4951H100.199L94.9463 21.7096H98.8693L89.6934 10.6666L80.7834 21.7096H84.4404L79.1875 28.4951H82.9111L76.5278 37.5424H89.6934ZM89.6934 37.5424V43.1304" stroke="#042A2B" stroke-linecap="round" stroke-linejoin="round"/>
</svg>
