<svg width="20" height="20" viewBox="0 0 20 20" xmlns="http://www.w3.org/2000/svg">
<path d="M11.0675 10.4423L4.81753 16.6923C4.70026 16.8096 4.5412 16.8755 4.37535 16.8755C4.2095 16.8755 4.05044 16.8096 3.93316 16.6923C3.81588 16.575 3.75 16.416 3.75 16.2501C3.75 16.0843 3.81588 15.9252 3.93316 15.8079L9.74175 10.0001L3.93316 4.19229C3.81588 4.07502 3.75 3.91596 3.75 3.7501C3.75 3.58425 3.81588 3.42519 3.93316 3.30792C4.05044 3.19064 4.2095 3.12476 4.37535 3.12476C4.5412 3.12476 4.70026 3.19064 4.81753 3.30792L11.0675 9.55792C11.1256 9.61596 11.1717 9.68489 11.2032 9.76077C11.2347 9.83664 11.2508 9.91797 11.2508 10.0001C11.2508 10.0822 11.2347 10.1636 11.2032 10.2394C11.1717 10.3153 11.1256 10.3842 11.0675 10.4423ZM17.3175 9.55792L11.0675 3.30792C10.9503 3.19064 10.7912 3.12476 10.6253 3.12476C10.4595 3.12476 10.3004 3.19064 10.1832 3.30792C10.0659 3.42519 10 3.58425 10 3.7501C10 3.91596 10.0659 4.07502 10.1832 4.19229L15.9918 10.0001L10.1832 15.8079C10.0659 15.9252 10 16.0843 10 16.2501C10 16.416 10.0659 16.575 10.1832 16.6923C10.3004 16.8096 10.4595 16.8755 10.6253 16.8755C10.7912 16.8755 10.9503 16.8096 11.0675 16.6923L17.3175 10.4423C17.3756 10.3842 17.4217 10.3153 17.4532 10.2394C17.4847 10.1636 17.5008 10.0822 17.5008 10.0001C17.5008 9.91797 17.4847 9.83664 17.4532 9.76077C17.4217 9.68489 17.3756 9.61596 17.3175 9.55792Z"/>
</svg>
