<svg width="120" height="120" viewBox="0 0 120 120" fill="none" xmlns="http://www.w3.org/2000/svg">
<path d="M60.0004 103.799C84.1905 103.799 103.8 84.1893 103.8 59.9992C103.8 35.8091 84.1905 16.1992 60.0004 16.1992C35.8104 16.1992 16.2004 35.8091 16.2004 59.9992C16.2004 84.1893 35.8104 103.799 60.0004 103.799Z" fill="#62C03D"/>
<path d="M63.4273 67.4635C55.0405 70.5643 46.3081 64.1875 51.9193 54.9319C57.5485 45.6451 48.4357 40.7863 42.2557 45.9571C33.6949 53.1199 39.1633 64.2391 28.4425 70.5451C20.8717 74.9983 14.8345 77.1319 14.8345 77.1319" stroke="#042A2B" stroke-miterlimit="10" stroke-linecap="round" stroke-linejoin="round"/>
<path d="M71.6676 63.8816C74.3676 61.6412 75.4212 55.226 71.8212 52.814C66.4008 49.1816 69.6768 41.0564 76.8 44.0432C82.5396 46.4504 88.7616 56.3756 81.7536 66.6008" stroke="#042A2B" stroke-miterlimit="10" stroke-linecap="round" stroke-linejoin="round"/>
<path d="M65.0664 73.2646C63.3012 71.3734 60.9312 64.5922 70.3632 64.0582C79.0656 63.565 84.2364 69.103 86.0016 72.3826C87.7668 75.6622 86.8068 82.3414 81.9816 83.4898" stroke="#042A2B" stroke-miterlimit="10" stroke-linecap="round" stroke-linejoin="round"/>
<path d="M72.2559 86.9364C72.2559 86.9364 68.0259 86.424 64.5627 84.7416C60.1491 82.5972 58.5087 73.3908 67.9683 73.1388C77.4267 72.8868 84.2379 80.58 81.3375 89.6604C78.4371 98.7408 61.4103 107.695 38.5815 111.353" stroke="#042A2B" stroke-miterlimit="10" stroke-linecap="round" stroke-linejoin="round"/>
<path d="M61.0212 47.6688C62.5866 47.6688 63.8556 46.3998 63.8556 44.8344C63.8556 43.269 62.5866 42 61.0212 42C59.4558 42 58.1868 43.269 58.1868 44.8344C58.1868 46.3998 59.4558 47.6688 61.0212 47.6688Z" stroke="#042A2B" stroke-miterlimit="10" stroke-linecap="round" stroke-linejoin="round"/>
<path d="M58.5708 10.168H49.0212V13.5472H52.3872V16.8664H49.0212V20.2456H58.5708" stroke="#042A2B" stroke-miterlimit="10" stroke-linecap="round" stroke-linejoin="round"/>
<path d="M63.4378 32.5001V8.92852C63.4378 7.59412 62.3554 6.51172 61.021 6.51172C59.6866 6.51172 58.6042 7.59412 58.6042 8.92852V32.5001C54.6598 33.5645 51.7534 37.1573 51.7534 41.4389C51.7534 46.5581 55.903 50.7065 61.021 50.7065C66.139 50.7065 70.2886 46.5569 70.2886 41.4389C70.2886 37.1585 67.3822 33.5645 63.4378 32.5001Z" stroke="#042A2B" stroke-miterlimit="10" stroke-linecap="round" stroke-linejoin="round"/>
</svg>
