<svg width="22" height="22" viewBox="0 0 22 22" fill="none" xmlns="http://www.w3.org/2000/svg">
<circle cx="11" cy="11" r="9" fill="white"/>
<path d="M9.29338 8.51825C9.24925 8.42528 8.9767 7.76398 8.74272 7.1963C8.64261 6.9534 8.54956 6.72764 8.4845 6.57088M9.29338 8.51825L6.83975 11.3442C6.83634 11.3396 6.83235 11.3341 6.8278 11.3279C6.6628 11.1029 5.771 9.88649 5.771 8.62963C5.771 7.37519 6.38977 6.74589 6.66755 6.46339C6.67575 6.45504 6.68366 6.447 6.69125 6.43925C6.90838 6.21763 7.26725 6.11637 7.6115 6.11637C7.71285 6.11637 7.80488 6.12103 7.88844 6.12526C7.89671 6.12568 7.9049 6.12609 7.913 6.1265C8.17737 6.13775 8.31012 6.1535 8.4845 6.57088M9.29338 8.51825C9.3575 8.651 9.42163 8.831 9.33162 9.00538L9.29338 8.51825ZM8.4845 6.57088L7.88348 6.82033L7.8782 6.82252L7.84319 6.83705L7.79731 6.87167C7.81528 6.87253 7.83363 6.87346 7.85256 6.87441C7.86012 6.87479 7.86778 6.87518 7.87555 6.87556L7.87555 6.87559L7.88111 6.87582C7.91354 6.8772 7.93259 6.87821 7.94699 6.87936C7.95474 6.87997 7.95829 6.88042 7.95865 6.88046C7.95893 6.8805 7.95732 6.88029 7.95429 6.87973C7.94647 6.8783 7.92798 6.87437 7.90324 6.8652C7.89628 6.86262 7.88916 6.85974 7.88193 6.85657C7.88017 6.85579 7.87839 6.855 7.87662 6.85419C7.86622 6.84945 7.85562 6.84408 7.84497 6.83806L7.87811 6.82422L7.8834 6.82201L8.4845 6.57088ZM1.88069 19.3801C1.79079 19.6481 1.8592 19.9439 2.05765 20.1452C2.2561 20.3465 2.55087 20.4191 2.82012 20.333L5.94517 19.334C7.42218 20.2349 9.15075 20.75 11.0022 20.75C16.3791 20.75 20.75 16.3763 20.75 11C20.75 5.62366 16.3791 1.25 11.0022 1.25H10.9978C5.62098 1.25 1.25 5.62247 1.25 11C1.25 12.9918 1.85009 14.8494 2.88228 16.3944L1.88069 19.3801ZM15.5321 14.4588C15.4997 14.5503 15.378 14.7173 15.112 14.8973C14.8598 15.068 14.5614 15.1927 14.3155 15.246L15.5321 14.4588Z" fill="#2BB741" stroke="white" stroke-width="1.5" stroke-linejoin="round"/>
</svg>
