<svg width="32" height="32" viewBox="0 0 32 32" fill="none" xmlns="http://www.w3.org/2000/svg">
<path d="M23.0701 7.73654L7.51375 23.2929C7.32621 23.4804 7.22085 23.7348 7.22085 24C7.22085 24.2652 7.32621 24.5196 7.51375 24.7071C7.70128 24.8946 7.95564 25 8.22085 25C8.48607 25 8.74042 24.8946 8.92796 24.7071L24.4843 9.15076C24.6718 8.96322 24.7772 8.70887 24.7772 8.44365C24.7772 8.17843 24.6718 7.92408 24.4843 7.73654C24.2968 7.54901 24.0424 7.44365 23.7772 7.44365C23.512 7.44365 23.2576 7.54901 23.0701 7.73654Z" fill="#B9C0C0"/>
<path d="M7.51555 9.12132L23.0719 24.6777C23.2594 24.8652 23.5138 24.9706 23.779 24.9706C24.0442 24.9706 24.2986 24.8652 24.4861 24.6777C24.6736 24.4901 24.779 24.2358 24.779 23.9706C24.779 23.7053 24.6736 23.451 24.4861 23.2635L8.92976 7.70711C8.74223 7.51957 8.48787 7.41421 8.22266 7.41421C7.95744 7.41421 7.70309 7.51957 7.51555 7.70711C7.32801 7.89464 7.22266 8.149 7.22266 8.41421C7.22266 8.67943 7.32801 8.93378 7.51555 9.12132Z" fill="#B9C0C0"/>
</svg>
