<svg width="195" height="64" viewBox="0 0 195 64" fill="none" xmlns="http://www.w3.org/2000/svg">
<path d="M50.3633 43.6652C47.8458 43.6652 45.7259 43.1905 43.9769 42.2673C42.2279 41.3442 40.9029 40.0254 40.0019 38.3374C39.1009 36.6494 38.6504 34.6712 38.6504 32.4557C38.6504 30.2138 39.1009 28.2356 40.0019 26.5476C40.9029 24.8596 42.2279 23.5408 43.9769 22.5913C45.7259 21.6418 47.8723 21.1406 50.4163 21.1406C52.9338 21.1406 55.0538 21.6154 56.8028 22.5913C58.5518 23.5408 59.8768 24.8859 60.7513 26.574C61.6258 28.262 62.0763 30.2401 62.0763 32.5084C62.0763 34.6976 61.6258 36.6494 60.7248 38.3374C59.8238 40.0254 58.4988 41.3442 56.7763 42.2673C55.0273 43.2169 52.9073 43.6652 50.3633 43.6652ZM50.3633 39.8408C52.0063 39.8408 53.3578 39.4979 54.3913 38.8385C55.4248 38.1792 56.1668 37.2824 56.6703 36.1746C57.1473 35.0669 57.4123 33.8272 57.4123 32.5084C57.4123 31.1633 57.1738 29.95 56.6703 28.8159C56.1668 27.6817 55.4248 26.785 54.3913 26.0992C53.3578 25.4134 52.0328 25.0706 50.3633 25.0706C48.7468 25.0706 47.3953 25.4134 46.3618 26.0992C45.3284 26.785 44.5599 27.6817 44.0829 28.7895C43.6059 29.8973 43.3674 31.1369 43.3674 32.5084C43.3674 33.8536 43.6059 35.0669 44.0829 36.1746C44.5599 37.2824 45.3284 38.1792 46.3618 38.8385C47.3953 39.4979 48.7468 39.8408 50.3633 39.8408Z" fill="white"/>
<path d="M64.9121 43.4278V21.457H70.9806L78.427 31.9808L85.741 21.457H91.7035V43.4278H86.96V26.653L79.01 38.1527H77.632L69.6556 26.6266V43.4278H64.9121Z" fill="white"/>
<path d="M95.4668 43.4278V21.457H100.21V37.0185C100.422 36.6757 100.687 36.3064 101.032 35.9108C101.376 35.5151 101.641 35.1723 101.8 34.9349L112.877 21.457H117.276V43.4278H112.533V27.9454C112.294 28.3146 112.029 28.6575 111.764 29.0004C111.499 29.3433 111.234 29.6598 110.969 29.9499L99.8923 43.4278H95.4668Z" fill="white"/>
<path d="M121.039 43.4278V21.457H125.783V30.5829H129.837L136.594 21.457H142.027L134.077 31.8753L142.477 43.4278H136.965L130.261 34.381H125.756V43.4278H121.039Z" fill="white"/>
<path d="M156.55 43.7965C155.145 43.7965 153.82 43.6382 152.548 43.3481C151.303 43.0316 150.163 42.5832 149.13 41.9502C148.096 41.3172 147.248 40.5259 146.559 39.5764C145.87 38.6269 145.393 37.4664 145.102 36.1476H149.978C150.243 36.8597 150.72 37.4927 151.382 38.0202C152.045 38.5478 152.813 38.9698 153.688 39.2599C154.562 39.5764 155.463 39.7083 156.364 39.7083C157.742 39.7083 158.961 39.4973 160.021 39.0489C161.081 38.6269 161.902 37.9939 162.512 37.1499C163.121 36.3058 163.439 35.2508 163.439 33.9321C163.439 32.1122 162.83 30.7143 161.611 29.712C160.392 28.7097 158.775 28.2086 156.788 28.2086C155.596 28.2086 154.483 28.3932 153.449 28.7625C152.416 29.1317 151.488 29.6592 150.614 30.3186H146.029L147.169 13.8867H167.282V17.9222H151.621L150.879 26.0985C151.727 25.4919 152.76 25.0172 153.979 24.6743C155.198 24.3314 156.576 24.1995 158.14 24.2259C160.233 24.2259 162.035 24.6215 163.572 25.3864C165.109 26.1777 166.301 27.2591 167.149 28.657C167.997 30.0549 168.421 31.7165 168.421 33.5892C168.421 35.7256 167.891 37.5455 166.831 39.0489C165.771 40.5523 164.34 41.7128 162.565 42.5041C160.789 43.4008 158.775 43.7965 156.55 43.7965Z" fill="white"/>
<path d="M182.996 43.7702C181.485 43.7702 180.054 43.6119 178.623 43.3218C177.219 43.0053 175.947 42.5305 174.834 41.8448C173.721 41.159 172.82 40.2622 172.157 39.1545C171.495 38.0467 171.15 36.6752 171.15 35.0663C171.15 33.9585 171.362 32.9562 171.76 32.0331C172.157 31.1363 172.74 30.3451 173.535 29.6857C174.304 29.0263 175.231 28.4988 176.265 28.1032C175.205 27.5757 174.357 26.9426 173.747 26.2041C173.138 25.4656 172.714 24.6744 172.502 23.8567C172.29 23.0127 172.184 22.2214 172.184 21.4829C172.184 20.0587 172.502 18.8718 173.111 17.8695C173.721 16.8936 174.542 16.076 175.602 15.443C176.636 14.8099 177.802 14.3616 179.1 14.0714C180.399 13.7813 181.724 13.623 183.102 13.623C184.453 13.623 185.778 13.7813 187.05 14.0714C188.349 14.3616 189.488 14.8363 190.548 15.4693C191.582 16.1023 192.403 16.92 193.039 17.9222C193.649 18.9245 193.967 20.1378 193.967 21.562C193.967 22.2742 193.861 23.0391 193.622 23.8567C193.384 24.6744 192.96 25.4392 192.35 26.1514C191.741 26.8635 190.893 27.4965 189.78 27.9977C190.893 28.3933 191.82 28.9208 192.615 29.6329C193.384 30.3187 193.993 31.1363 194.391 32.0595C194.788 32.9826 195 34.0113 195 35.1454C195 36.7279 194.656 38.0731 193.993 39.1808C193.331 40.2886 192.403 41.1854 191.264 41.8711C190.124 42.5569 188.852 43.058 187.448 43.3482C185.937 43.6119 184.506 43.7702 182.996 43.7702ZM182.996 39.7611C183.738 39.7611 184.506 39.682 185.301 39.5501C186.096 39.4182 186.838 39.1808 187.554 38.8116C188.269 38.4687 188.826 37.9676 189.276 37.3609C189.727 36.7279 189.939 35.963 189.939 35.0135C189.939 33.853 189.621 32.9299 188.985 32.2441C188.349 31.5583 187.501 31.0572 186.441 30.7407C185.381 30.4242 184.241 30.2659 183.022 30.2659C181.83 30.2659 180.69 30.4242 179.657 30.7407C178.597 31.0572 177.749 31.5583 177.086 32.2441C176.424 32.9299 176.106 33.853 176.106 35.0135C176.106 35.963 176.318 36.7543 176.768 37.3609C177.219 37.994 177.802 38.4687 178.517 38.8116C179.233 39.1545 180.001 39.3918 180.796 39.5501C181.538 39.682 182.28 39.7611 182.996 39.7611ZM183.049 26.5734C184.162 26.5734 185.142 26.4151 186.017 26.0723C186.891 25.7294 187.607 25.2546 188.163 24.5952C188.72 23.9358 188.985 23.1446 188.985 22.1951C189.011 21.0873 188.746 20.1905 188.216 19.5048C187.66 18.819 186.944 18.3179 186.043 18.0014C185.142 17.6849 184.135 17.5266 183.022 17.5266C181.883 17.5266 180.876 17.6849 179.975 18.0014C179.074 18.3179 178.358 18.819 177.855 19.4784C177.351 20.1378 177.086 20.9818 177.086 22.0104C177.086 23.0391 177.351 23.8831 177.908 24.5689C178.464 25.2546 179.18 25.7557 180.081 26.0723C180.982 26.4151 181.962 26.5734 183.049 26.5734Z" fill="white"/>
<path d="M25.2684 43.4008H9.81893C8.38794 43.4008 7.22194 42.2403 7.22194 40.816V27.5491C7.22194 26.1512 8.28194 24.8852 9.68643 24.8061C11.1969 24.727 12.4424 25.9139 12.4424 27.3909V38.2048H25.2684C28.4483 38.2048 31.0188 35.6464 31.0188 32.4813C31.0188 27.9184 27.3088 24.1995 22.6979 24.1995H2.74347C1.89547 24.1995 1.04747 23.8566 0.543976 23.1972C-0.277519 22.1158 -0.14502 20.6915 0.782476 19.7684L19.8889 0.7517C20.8959 -0.250567 22.5654 -0.250567 23.5724 0.7517L39.0483 15.4428C40.0023 16.3923 40.1878 17.9749 39.3398 19.0299C38.3593 20.2432 36.5573 20.2959 35.4708 19.2409L21.7174 6.26417L8.89143 19.0299H22.6979C30.1708 19.0299 36.2128 25.0435 36.2128 32.4813C36.2128 38.5213 31.3103 43.4008 25.2684 43.4008Z" fill="#6AB543"/>
<path d="M20.3398 61.8911L23.2018 54.2422H24.5533L27.3888 61.8911H26.3553L25.7458 60.2558H21.9563L21.3468 61.8911H20.3398ZM22.2743 59.3854H25.4543L23.8643 55.0598L22.2743 59.3854Z" fill="white"/>
<path d="M28.9785 61.8911V54.2422H31.6285C32.185 54.2422 32.6885 54.3213 33.086 54.5059C33.4835 54.6906 33.8015 54.9807 34.0135 55.35C34.2255 55.7192 34.3315 56.194 34.3315 56.7742C34.3315 57.3281 34.199 57.8029 33.9605 58.1985C33.722 58.5941 33.3775 58.8843 32.927 59.0689C32.503 59.2535 31.9995 59.359 31.4165 59.359H29.906V61.8911H28.9785ZM29.9325 58.515H31.4165C31.9995 58.515 32.4765 58.3831 32.8475 58.093C33.2185 57.8029 33.404 57.3545 33.404 56.7479C33.404 56.194 33.245 55.7983 32.9535 55.5082C32.662 55.2445 32.2115 55.0862 31.6285 55.0862H29.959V58.515H29.9325Z" fill="white"/>
<path d="M36.3184 61.8911V54.2422H41.4858V55.0862H37.2724V57.671H41.0618V58.5414H37.2724V61.047H41.4858V61.8911H36.3184Z" fill="white"/>
<path d="M43.5 61.8911V54.2422H44.454V57.6974H48.5615V54.2422H49.5155V61.8911H48.5615V58.5678H44.454V61.8911H43.5Z" fill="white"/>
<path d="M51.2129 64.0011V61.047C51.4779 61.047 51.6634 60.9943 51.7959 60.8888C51.9284 60.7833 52.0344 60.6514 52.1139 60.4932C52.1669 60.3613 52.2199 60.1767 52.2729 59.9657C52.3259 59.7546 52.3524 59.5436 52.3789 59.3063C52.4054 59.0689 52.4319 58.8315 52.4584 58.5678C52.5114 57.8556 52.5379 57.1171 52.5644 56.405C52.5909 55.6928 52.5909 54.9543 52.6174 54.2422H57.5199V61.0207H58.4474V63.9747H57.4934V61.8647H52.1669V63.9747H51.2129V64.0011ZM52.9619 61.047H56.5924V55.1126H53.5449L53.4389 58.093C53.4389 58.2776 53.4124 58.4623 53.4124 58.6996C53.4124 58.937 53.3859 59.2008 53.3594 59.4381C53.3329 59.7019 53.2799 59.9657 53.2269 60.2558C53.1474 60.5195 53.0679 60.7833 52.9619 61.047Z" fill="white"/>
<path d="M59.5605 61.8911L62.4225 54.2422H63.774L66.6095 61.8911H65.6025L64.993 60.2558H61.2035L60.594 61.8911H59.5605ZM61.495 59.3854H64.675L63.085 55.0598L61.495 59.3854Z" fill="white"/>
<path d="M70.9805 64.0011V61.047C71.2455 61.047 71.431 60.9943 71.5635 60.8888C71.696 60.7833 71.802 60.6514 71.8815 60.4932C71.9345 60.3613 71.9875 60.1767 72.0405 59.9657C72.0935 59.7546 72.12 59.5436 72.1465 59.3063C72.173 59.0689 72.1995 58.8315 72.226 58.5678C72.279 57.8556 72.3055 57.1171 72.332 56.405C72.3585 55.6928 72.3585 54.9543 72.385 54.2422H77.2874V61.0207H78.2149V63.9747H77.2609V61.8647H71.9345V63.9747H70.9805V64.0011ZM72.7295 61.047H76.3334V55.1126H73.286L73.18 58.093C73.18 58.2776 73.1535 58.4623 73.1535 58.6996C73.1535 58.937 73.127 59.2008 73.1005 59.4381C73.074 59.7019 73.021 59.9657 72.968 60.2558C72.915 60.5195 72.8355 60.7833 72.7295 61.047Z" fill="white"/>
<path d="M83.1177 61.9692C82.3227 61.9692 81.6602 61.811 81.1302 61.4681C80.6002 61.1252 80.2027 60.6768 79.9112 60.0702C79.6197 59.4636 79.5137 58.8042 79.5137 58.0657C79.5137 57.3272 79.6462 56.6414 79.9112 56.0611C80.1762 55.4809 80.5737 55.0061 81.1302 54.6632C81.6602 54.3204 82.3227 54.1621 83.1177 54.1621C83.9127 54.1621 84.5751 54.3204 85.1051 54.6632C85.6351 55.0061 86.0326 55.4545 86.3241 56.0611C86.6156 56.6678 86.7216 57.3272 86.7216 58.0657C86.7216 58.8042 86.5891 59.4636 86.3241 60.0702C86.0591 60.6768 85.6616 61.1252 85.1051 61.4681C84.6016 61.811 83.9127 61.9692 83.1177 61.9692ZM83.1177 61.1252C83.7272 61.1252 84.2306 60.9934 84.6281 60.7032C85.0256 60.4131 85.3171 60.0438 85.5026 59.5955C85.6881 59.1471 85.7676 58.6196 85.7676 58.0657C85.7676 57.6437 85.7146 57.248 85.6086 56.8788C85.5026 56.5095 85.3436 56.193 85.1316 55.9029C84.9196 55.6128 84.6281 55.4018 84.3101 55.2435C83.9657 55.0853 83.5947 55.0061 83.1442 55.0061C82.5347 55.0061 82.0577 55.138 81.6602 55.4281C81.2627 55.7183 80.9712 56.0875 80.7857 56.5359C80.6002 56.9843 80.4942 57.5118 80.4942 58.0657C80.4942 58.6196 80.6002 59.1207 80.7857 59.5691C80.9712 60.0175 81.2627 60.4131 81.6602 60.6768C82.0312 60.9934 82.5082 61.1252 83.1177 61.1252Z" fill="white"/>
<path d="M88.7363 61.8911V54.2422H90.1408L92.4993 58.4359L94.8048 54.2422H96.1828V61.8911H95.2288V55.1917L92.6848 59.8865H92.2608L89.6903 55.1917V61.8911H88.7363Z" fill="white"/>
<path d="M101.827 61.9692C101.032 61.9692 100.369 61.811 99.8391 61.4681C99.3092 61.1252 98.9117 60.6768 98.6202 60.0702C98.3552 59.4899 98.2227 58.8042 98.2227 58.0657C98.2227 57.3272 98.3552 56.6414 98.6202 56.0611C98.8852 55.4809 99.2827 55.0061 99.8391 54.6632C100.369 54.3204 101.032 54.1621 101.827 54.1621C102.622 54.1621 103.284 54.3204 103.814 54.6632C104.344 55.0061 104.742 55.4545 105.007 56.0611C105.272 56.6414 105.404 57.3272 105.404 58.0657C105.404 58.8042 105.272 59.4636 105.007 60.0702C104.742 60.6505 104.344 61.1252 103.814 61.4681C103.284 61.811 102.622 61.9692 101.827 61.9692ZM101.827 61.1252C102.436 61.1252 102.94 60.9934 103.337 60.7032C103.735 60.4131 104.026 60.0438 104.212 59.5955C104.397 59.1471 104.477 58.6196 104.477 58.0657C104.477 57.6437 104.424 57.248 104.318 56.8788C104.212 56.5095 104.053 56.193 103.841 55.9029C103.629 55.6128 103.337 55.4018 103.019 55.2435C102.675 55.0853 102.304 55.0061 101.853 55.0061C101.244 55.0061 100.767 55.138 100.369 55.4281C99.9716 55.7183 99.6801 56.0875 99.4946 56.5359C99.3091 56.9843 99.2031 57.5118 99.2031 58.0657C99.2031 58.6196 99.3091 59.1207 99.4946 59.5691C99.6801 60.0175 99.9716 60.4131 100.369 60.6768C100.714 60.9934 101.217 61.1252 101.827 61.1252Z" fill="white"/>
<path d="M107.418 61.8911V54.2422H110.121C110.492 54.2422 110.863 54.2686 111.154 54.3213C111.472 54.3741 111.737 54.4796 111.976 54.6378C112.214 54.7697 112.373 54.9807 112.506 55.2181C112.638 55.4555 112.691 55.772 112.691 56.1412C112.691 56.5368 112.612 56.8797 112.426 57.1699C112.241 57.46 111.976 57.6974 111.605 57.8292C112.108 57.9084 112.479 58.1194 112.718 58.4623C112.956 58.7788 113.089 59.2008 113.089 59.7283C113.089 60.1503 113.009 60.4932 112.85 60.7569C112.691 61.0207 112.479 61.258 112.188 61.4163C111.896 61.5746 111.578 61.7064 111.234 61.7592C110.863 61.8383 110.492 61.8647 110.068 61.8647H107.418V61.8911ZM108.372 57.5919H109.856C110.121 57.5919 110.386 57.5655 110.598 57.5127C110.836 57.46 111.022 57.3809 111.207 57.2754C111.393 57.1699 111.525 57.038 111.605 56.8534C111.684 56.6687 111.764 56.4577 111.764 56.194C111.764 55.8511 111.684 55.6137 111.525 55.4555C111.366 55.2972 111.181 55.1917 110.916 55.139C110.677 55.0862 110.412 55.0598 110.121 55.0598H108.372V57.5919ZM108.372 61.047H110.041C110.253 61.047 110.492 61.047 110.73 61.0207C110.969 60.9943 111.207 60.9415 111.419 60.8624C111.631 60.7833 111.79 60.6514 111.923 60.4668C112.055 60.2822 112.108 60.0448 112.108 59.7547C112.108 59.4909 112.055 59.2799 111.949 59.1216C111.843 58.9634 111.711 58.8315 111.552 58.726C111.393 58.6205 111.207 58.5678 110.995 58.5414C110.783 58.515 110.571 58.4886 110.359 58.4886H108.345V61.047H108.372Z" fill="white"/>
<path d="M118.574 61.8911V54.2422H119.528V60.414L123.636 54.2422H124.643V61.8911H123.689V55.772L119.555 61.8911H118.574Z" fill="white"/>
<path d="M130.553 61.8911V54.2422H131.507V57.7765H132.646L135.137 54.2422H136.224L133.468 58.0402L136.25 61.8911H135.137L132.726 58.6205H131.507V61.8911H130.553Z" fill="white"/>
<path d="M137.867 61.8911V54.2422H140.57C140.941 54.2422 141.312 54.2686 141.604 54.3213C141.922 54.3741 142.187 54.4796 142.425 54.6378C142.664 54.7697 142.823 54.9807 142.955 55.2181C143.088 55.4555 143.141 55.772 143.141 56.1412C143.141 56.5368 143.061 56.8797 142.876 57.1699C142.69 57.46 142.425 57.6974 142.054 57.8292C142.558 57.9084 142.929 58.1194 143.167 58.4623C143.406 58.7788 143.538 59.2008 143.538 59.7283C143.538 60.1503 143.459 60.4932 143.3 60.7569C143.141 61.0207 142.929 61.258 142.637 61.4163C142.346 61.5746 142.028 61.7064 141.683 61.7592C141.312 61.8383 140.941 61.8647 140.517 61.8647H137.867V61.8911ZM138.821 57.5919H140.305C140.57 57.5919 140.835 57.5655 141.047 57.5127C141.286 57.46 141.471 57.3809 141.657 57.2754C141.842 57.1699 141.975 57.038 142.054 56.8534C142.134 56.6687 142.213 56.4577 142.213 56.194C142.213 55.8511 142.134 55.6137 141.975 55.4555C141.816 55.2972 141.63 55.1917 141.365 55.139C141.127 55.0862 140.862 55.0598 140.57 55.0598H138.821V57.5919ZM138.821 61.047H140.491C140.703 61.047 140.941 61.047 141.18 61.0207C141.418 60.9943 141.657 60.9415 141.869 60.8624C142.081 60.7833 142.24 60.6514 142.372 60.4668C142.505 60.2822 142.558 60.0448 142.558 59.7547C142.558 59.4909 142.505 59.2799 142.399 59.1216C142.293 58.9634 142.16 58.8315 142.001 58.726C141.842 58.6205 141.657 58.5678 141.445 58.5414C141.233 58.515 141.021 58.4886 140.809 58.4886H138.795V61.047H138.821Z" fill="white"/>
<path d="M144.703 61.8911L147.565 54.2422H148.917L151.752 61.8911H150.719L150.109 60.2558H146.32L145.71 61.8911H144.703ZM146.638 59.3854H149.818L148.228 55.0598L146.638 59.3854Z" fill="white"/>
<path d="M153.369 61.8911V54.2422H156.019C156.576 54.2422 157.079 54.3213 157.477 54.5059C157.874 54.6906 158.192 54.9807 158.404 55.35C158.616 55.7192 158.722 56.194 158.722 56.7742C158.722 57.3281 158.59 57.8029 158.351 58.1985C158.113 58.5941 157.768 58.8843 157.318 59.0689C156.894 59.2535 156.39 59.359 155.807 59.359H154.297V61.8911H153.369ZM154.297 58.515H155.781C156.364 58.515 156.841 58.3831 157.212 58.093C157.583 57.8029 157.768 57.3545 157.768 56.7479C157.768 56.194 157.609 55.7983 157.318 55.5082C157.026 55.2445 156.576 55.0862 155.993 55.0862H154.323V58.515H154.297Z" fill="white"/>
<path d="M162.379 61.8901V55.1116H159.914V54.2676H165.771V55.1116H163.306V61.8901H162.379Z" fill="white"/>
<path d="M167.414 61.8911V54.2422H168.368V60.414L172.476 54.2422H173.483V61.8911H172.529V55.772L168.395 61.8911H167.414Z" fill="white"/>
<path d="M175.92 61.8911V54.2422H178.57C179.126 54.2422 179.63 54.3213 180.027 54.5059C180.425 54.6906 180.743 54.9807 180.955 55.35C181.167 55.7192 181.273 56.194 181.273 56.7742C181.273 57.3281 181.14 57.8029 180.902 58.1985C180.663 58.5941 180.319 58.8843 179.868 59.0689C179.444 59.2535 178.941 59.359 178.358 59.359H176.847V61.8911H175.92ZM176.847 58.515H178.331C178.914 58.515 179.391 58.3831 179.762 58.093C180.133 57.8029 180.319 57.3545 180.319 56.7479C180.319 56.194 180.16 55.7983 179.868 55.5082C179.577 55.2445 179.126 55.0862 178.543 55.0862H176.874V58.515H176.847Z" fill="white"/>
</svg>
