<svg width="40" height="40" viewBox="0 0 40 40" fill="none" xmlns="http://www.w3.org/2000/svg">
<path d="M20 40C31.04 40 40 31.04 40 20C40 8.96 31.04 0 20 0C8.96 0 0 8.94 0 20C0 31.06 8.96 40 20 40Z" fill="#DF0016"/>
<path d="M11.179 10.5601V17.3601C12.219 16.1201 13.459 15.5001 14.899 15.5001C15.639 15.5001 16.299 15.6401 16.899 15.9201C17.499 16.2001 17.939 16.5601 18.239 17.0001C18.539 17.4401 18.739 17.9201 18.859 18.4601C18.979 18.9801 19.019 19.8001 19.019 20.9201V28.2001H15.799V21.6401C15.799 20.3401 15.739 19.5201 15.619 19.1601C15.499 18.8001 15.279 18.5401 14.979 18.3201C14.679 18.1201 14.279 18.0001 13.819 18.0001C13.279 18.0001 12.799 18.1401 12.399 18.4001C11.979 18.6601 11.659 19.0601 11.479 19.6001C11.279 20.1401 11.179 20.9201 11.179 21.9601V28.1801H7.95898V10.5601H11.179Z" fill="white"/>
<path d="M23.8391 10.5601V17.3601C24.8791 16.1201 26.1191 15.5001 27.5591 15.5001C28.2991 15.5001 28.9591 15.6401 29.5591 15.9201C30.1591 16.2001 30.5991 16.5601 30.8991 17.0001C31.1991 17.4401 31.3991 17.9201 31.5191 18.4601C31.6391 18.9801 31.6791 19.8001 31.6791 20.9201V28.2001H28.4591V21.6401C28.4591 20.3401 28.3991 19.5201 28.2791 19.1601C28.1591 18.8001 27.9391 18.5401 27.6391 18.3201C27.3391 18.1201 26.9391 18.0001 26.4791 18.0001C25.9391 18.0001 25.4591 18.1401 25.0591 18.4001C24.6391 18.6601 24.3391 19.0601 24.1391 19.6001C23.9391 20.1401 23.8391 20.9201 23.8391 21.9601V28.1801H20.6191V10.5601H23.8391Z" fill="white"/>
</svg>
