<svg width="16" height="16" viewBox="0 0 16 16" fill="#62c03d" xmlns="http://www.w3.org/2000/svg">
<path d="M14 7.22179V12.9999C14 13.2651 13.8946 13.5195 13.7071 13.707C13.5196 13.8946 13.2652 13.9999 13 13.9999H10.5C10.2348 13.9999 9.98043 13.8946 9.79289 13.707C9.60536 13.5195 9.5 13.2651 9.5 12.9999V10.4999C9.5 10.3673 9.44732 10.2401 9.35355 10.1464C9.25979 10.0526 9.13261 9.99991 9 9.99991H7C6.86739 9.99991 6.74021 10.0526 6.64645 10.1464C6.55268 10.2401 6.5 10.3673 6.5 10.4999V12.9999C6.5 13.2651 6.39464 13.5195 6.20711 13.707C6.01957 13.8946 5.76522 13.9999 5.5 13.9999H3C2.73478 13.9999 2.48043 13.8946 2.29289 13.707C2.10536 13.5195 2 13.2651 2 12.9999V7.22179C1.99998 7.08339 2.02869 6.94649 2.08431 6.81976C2.13993 6.69303 2.22125 6.57922 2.32312 6.48554L7.32312 1.76804L7.33 1.76116C7.51409 1.59375 7.75398 1.50098 8.00281 1.50098C8.25164 1.50098 8.49154 1.59375 8.67562 1.76116C8.67776 1.76361 8.68005 1.76591 8.6825 1.76804L13.6825 6.48554C13.7834 6.57971 13.8636 6.69374 13.9183 6.82045C13.9729 6.94716 14.0007 7.0838 14 7.22179Z" fill="#62C03D"/>
</svg>
