<svg width="40" height="40" viewBox="0 0 40 40" fill="none" xmlns="http://www.w3.org/2000/svg">
<g clip-path="url(#clip0_325_3989)">
<circle cx="20" cy="20" r="20" fill="url(#paint0_linear_325_3989)"/>
<path fill-rule="evenodd" clip-rule="evenodd" d="M31.4151 24.7348C31.3596 25.9573 31.1652 26.792 30.8813 27.5226C30.5863 28.2855 30.1351 28.9783 29.5567 29.5567C28.9783 30.1351 28.2855 30.5863 27.5226 30.8813C26.7923 31.1652 25.9573 31.3592 24.7351 31.4151C23.5105 31.4709 23.1192 31.4844 20.0003 31.4844C16.8811 31.4844 16.4902 31.4709 15.2652 31.4151C14.043 31.3592 13.208 31.1652 12.4777 30.8813C11.7113 30.593 11.017 30.1409 10.4434 29.5566C9.85928 28.983 9.40729 28.2888 9.11898 27.5226C8.83516 26.7923 8.64078 25.9573 8.58523 24.7351C8.52875 23.5101 8.51562 23.1189 8.51562 20C8.51562 16.8811 8.52875 16.4898 8.58492 15.2652C8.64039 14.0427 8.83453 13.208 9.11836 12.4774C9.40675 11.7111 9.85894 11.0169 10.4434 10.4434C11.0169 9.85908 11.7111 9.40696 12.4774 9.11867C13.208 8.83484 14.0427 8.64078 15.2652 8.58492C16.4898 8.52906 16.8811 8.51562 20 8.51562C23.1189 8.51562 23.5102 8.52906 24.7348 8.58516C25.9573 8.64078 26.792 8.83484 27.5226 9.11836C28.289 9.40681 28.9833 9.85899 29.557 10.4434C30.1411 11.017 30.5931 11.7111 30.8813 12.4774C31.1655 13.208 31.3595 14.0427 31.4154 15.2652C31.4713 16.4898 31.4844 16.8811 31.4844 20C31.4844 23.1189 31.4713 23.5102 31.4151 24.7348ZM28.0936 11.9064C28.475 12.2769 28.7686 12.7281 28.9527 13.227C29.1101 13.6316 29.2972 14.2398 29.3481 15.3595C29.4034 16.5705 29.415 16.9336 29.415 20.0003C29.415 23.0667 29.4034 23.4298 29.3481 24.6411C29.2969 25.7609 29.1098 26.3687 28.9527 26.7734C28.7616 27.2687 28.469 27.7185 28.0936 28.0939C27.7182 28.4693 27.2684 28.7619 26.773 28.953C26.3684 29.1104 25.7602 29.2975 24.6405 29.3484C23.4298 29.4037 23.0667 29.4153 19.9997 29.4153C16.933 29.4153 16.5702 29.4037 15.3592 29.3484C14.2395 29.2975 13.6313 29.1104 13.2266 28.953C12.7278 28.769 12.2765 28.4754 11.9061 28.0939C11.5247 27.7234 11.2312 27.2722 11.047 26.7734C10.8899 26.3687 10.7028 25.7608 10.6519 24.6411C10.5966 23.4298 10.5847 23.0667 10.5847 20.0003C10.5847 16.9336 10.5966 16.5705 10.6519 15.3595C10.7028 14.2398 10.8899 13.6316 11.047 13.227C11.2313 12.7281 11.5249 12.2769 11.9064 11.9064C12.2768 11.5249 12.728 11.2313 13.227 11.0473C13.6312 10.8902 14.2395 10.7031 15.3592 10.6519C16.5702 10.5966 16.9333 10.585 20 10.585C23.0664 10.585 23.4295 10.597 24.6408 10.6522C25.7605 10.7031 26.3684 10.8902 26.773 11.0473C27.2719 11.2314 27.7232 11.5249 28.0936 11.9064Z" fill="white"/>
<path d="M26.1304 15.2478C25.3693 15.2478 24.7523 14.6307 24.7523 13.8697C24.7523 13.1087 25.3693 12.4915 26.1304 12.4915C26.8915 12.4915 27.5085 13.1085 27.5085 13.8696C27.5082 14.6307 26.8915 15.2478 26.1304 15.2478Z" fill="white"/>
<path fill-rule="evenodd" clip-rule="evenodd" d="M20 25.8973C16.7429 25.8973 14.1025 23.2571 14.1025 20C14.1025 16.7429 16.7429 14.1028 20 14.1028C23.2569 14.1028 25.8972 16.7429 25.8972 20C25.8972 23.2571 23.2569 25.8973 20 25.8973ZM20 23.8281C22.1142 23.8281 23.8281 22.1143 23.8281 20C23.8281 17.8858 22.1142 16.1719 20 16.1719C17.8858 16.1719 16.1719 17.8858 16.1719 20C16.1719 22.1142 17.8858 23.8281 20 23.8281Z" fill="white"/>
</g>
<defs>
<linearGradient id="paint0_linear_325_3989" x1="1.17188" y1="-1.875" x2="40" y2="40" gradientUnits="userSpaceOnUse">
<stop stop-color="#FAE100"/>
<stop offset="0.155426" stop-color="#FCB720"/>
<stop offset="0.33076" stop-color="#FF7950"/>
<stop offset="0.500584" stop-color="#FF1C74"/>
<stop offset="1" stop-color="#6C1CD1"/>
</linearGradient>
<clipPath id="clip0_325_3989">
<rect width="40" height="40" fill="white"/>
</clipPath>
</defs>
</svg>
