<svg width="110" height="24" viewBox="0 0 110 24" fill="none" xmlns="http://www.w3.org/2000/svg">
<g clip-path="url(#clip0_2_4238)">
<path d="M28.3253 23.8779C26.9052 23.8779 25.7094 23.6177 24.7228 23.1119C23.7362 22.606 22.9888 21.8834 22.4806 20.9584C21.9724 20.0334 21.7183 18.9495 21.7183 17.7354C21.7183 16.5069 21.9724 15.423 22.4806 14.498C22.9888 13.573 23.7362 12.8504 24.7228 12.3301C25.7094 11.8098 26.9202 11.5352 28.3552 11.5352C29.7752 11.5352 30.9711 11.7953 31.9577 12.3301C32.9442 12.8504 33.6916 13.5875 34.1849 14.5124C34.6782 15.4374 34.9323 16.5214 34.9323 17.7643C34.9323 18.9639 34.6782 20.0334 34.17 20.9584C33.6617 21.8834 32.9143 22.606 31.9427 23.1119C30.9561 23.6322 29.7603 23.8779 28.3253 23.8779ZM28.3253 21.7822C29.2521 21.7822 30.0144 21.5943 30.5974 21.233C31.1804 20.8717 31.5989 20.3803 31.8829 19.7733C32.152 19.1663 32.3015 18.487 32.3015 17.7643C32.3015 17.0272 32.1669 16.3624 31.8829 15.7409C31.5989 15.1195 31.1804 14.6281 30.5974 14.2523C30.0144 13.8765 29.267 13.6886 28.3253 13.6886C27.4135 13.6886 26.6511 13.8765 26.0681 14.2523C25.4852 14.6281 25.0517 15.1195 24.7826 15.7265C24.5135 16.3335 24.379 17.0128 24.379 17.7643C24.379 18.5014 24.5135 19.1663 24.7826 19.7733C25.0517 20.3803 25.4852 20.8717 26.0681 21.233C26.6511 21.5943 27.4135 21.7822 28.3253 21.7822Z" fill="#161414"/>
<path d="M36.5315 23.7482V11.709H39.9546L44.155 17.4757L48.2806 11.709H51.644V23.7482H48.9683V14.5562L44.4838 20.8576H43.7065L39.2072 14.5417V23.7482H36.5315Z" fill="#161414"/>
<path d="M53.7664 23.7482V11.709H56.4421V20.2362C56.5616 20.0483 56.7111 19.8459 56.9054 19.6291C57.0998 19.4123 57.2492 19.2245 57.3389 19.0944L63.5872 11.709H66.0686V23.7482H63.3929V15.2644C63.2584 15.4667 63.1089 15.6546 62.9594 15.8425C62.8099 16.0304 62.6604 16.2038 62.511 16.3628L56.2627 23.7482H53.7664Z" fill="#161414"/>
<path d="M68.1919 23.7482V11.709H70.8676V16.7097H73.1546L76.9664 11.709H80.0307L75.5463 17.4179L80.2848 23.7482H77.1757L73.3938 18.7909H70.8526V23.7482H68.1919Z" fill="#161414"/>
<path d="M88.222 23.9501C87.4297 23.9501 86.6823 23.8633 85.9648 23.7044C85.2622 23.5309 84.6195 23.2852 84.0365 22.9384C83.4535 22.5915 82.9752 22.1579 82.5865 21.6376C82.1979 21.1173 81.9288 20.4814 81.7644 19.7587H84.5148C84.6643 20.149 84.9334 20.4958 85.3071 20.7849C85.6808 21.074 86.1143 21.3052 86.6076 21.4642C87.1009 21.6376 87.6091 21.7099 88.1173 21.7099C88.8946 21.7099 89.5822 21.5943 90.1801 21.3486C90.7781 21.1173 91.2415 20.7704 91.5853 20.3079C91.9291 19.8455 92.1084 19.2673 92.1084 18.5447C92.1084 17.5475 91.7646 16.7815 91.077 16.2323C90.3894 15.683 89.4776 15.4084 88.3565 15.4084C87.6838 15.4084 87.056 15.5096 86.473 15.7119C85.8901 15.9143 85.3669 16.2033 84.8736 16.5647H82.2876L82.9303 7.56055H94.2759V9.77183H85.4416L85.0231 14.2522C85.5014 13.9198 86.0844 13.6596 86.772 13.4718C87.4596 13.2839 88.2369 13.2116 89.1188 13.2261C90.2997 13.2261 91.3162 13.4429 92.1832 13.862C93.0502 14.2956 93.7228 14.8881 94.2012 15.6541C94.6795 16.4201 94.9187 17.3307 94.9187 18.3568C94.9187 19.5275 94.6197 20.5247 94.0218 21.3486C93.4239 22.1724 92.6167 22.8083 91.6152 23.2419C90.6136 23.7333 89.4776 23.9501 88.222 23.9501Z" fill="#161414"/>
<path d="M103.14 23.9356C102.288 23.9356 101.481 23.8489 100.674 23.6899C99.8816 23.5165 99.1641 23.2563 98.5363 22.8806C97.9085 22.5048 97.4002 22.0134 97.0265 21.4064C96.6528 20.7993 96.4585 20.0478 96.4585 19.1662C96.4585 18.5592 96.5781 18.0099 96.8023 17.5041C97.0265 17.0127 97.3554 16.5791 97.8038 16.2178C98.2373 15.8565 98.7605 15.5674 99.3435 15.3506C98.7455 15.0616 98.2672 14.7147 97.9234 14.31C97.5796 13.9053 97.3404 13.4718 97.2209 13.0237C97.1013 12.5612 97.0415 12.1276 97.0415 11.723C97.0415 10.9425 97.2208 10.2921 97.5647 9.74292C97.9085 9.20817 98.3718 8.76013 98.9698 8.41326C99.5527 8.06639 100.21 7.82069 100.943 7.66171C101.675 7.50273 102.423 7.41602 103.2 7.41602C103.962 7.41602 104.71 7.50273 105.427 7.66171C106.16 7.82069 106.803 8.08085 107.4 8.42771C107.983 8.77458 108.447 9.22262 108.806 9.77183C109.149 10.321 109.329 10.9859 109.329 11.7663C109.329 12.1565 109.269 12.5757 109.134 13.0237C109 13.4718 108.761 13.8909 108.417 14.2811C108.073 14.6713 107.595 15.0182 106.967 15.2928C107.595 15.5096 108.118 15.7987 108.566 16.1889C109 16.5647 109.344 17.0127 109.568 17.5185C109.792 18.0244 109.912 18.5881 109.912 19.2095C109.912 20.0767 109.717 20.8138 109.344 21.4208C108.97 22.0278 108.447 22.5192 107.804 22.895C107.161 23.2708 106.444 23.5454 105.652 23.7044C104.799 23.8489 103.992 23.9356 103.14 23.9356ZM103.14 21.7388C103.559 21.7388 103.992 21.6954 104.441 21.6232C104.889 21.5509 105.308 21.4208 105.711 21.2185C106.115 21.0306 106.429 20.756 106.683 20.4236C106.937 20.0767 107.057 19.6576 107.057 19.1373C107.057 18.5013 106.877 17.9955 106.519 17.6197C106.16 17.2439 105.681 16.9693 105.084 16.7959C104.486 16.6225 103.843 16.5358 103.155 16.5358C102.483 16.5358 101.84 16.6225 101.257 16.7959C100.659 16.9693 100.181 17.2439 99.8069 17.6197C99.4332 17.9955 99.2538 18.5013 99.2538 19.1373C99.2538 19.6576 99.3734 20.0912 99.6275 20.4236C99.8816 20.7704 100.21 21.0306 100.614 21.2185C101.018 21.4064 101.451 21.5364 101.9 21.6232C102.318 21.6954 102.737 21.7388 103.14 21.7388ZM103.17 14.5124C103.798 14.5124 104.351 14.4256 104.844 14.2378C105.338 14.0499 105.741 13.7897 106.055 13.4284C106.369 13.0671 106.519 12.6335 106.519 12.1132C106.533 11.5062 106.384 11.0148 106.085 10.639C105.771 10.2632 105.368 9.98862 104.859 9.81519C104.351 9.64175 103.783 9.55504 103.155 9.55504C102.512 9.55504 101.944 9.64175 101.436 9.81519C100.928 9.98862 100.524 10.2632 100.24 10.6245C99.9563 10.9859 99.8069 11.4484 99.8069 12.012C99.8069 12.5757 99.9563 13.0382 100.27 13.4139C100.584 13.7897 100.988 14.0643 101.496 14.2378C102.004 14.4256 102.557 14.5124 103.17 14.5124Z" fill="#161414"/>
<path d="M14.1696 23.7333H5.45492C4.64772 23.7333 3.99001 23.0974 3.99001 22.3169V15.0472C3.99001 14.2812 4.58793 13.5874 5.38018 13.5441C6.23221 13.5007 6.93477 14.1511 6.93477 14.9604V20.8861H14.1696C15.9634 20.8861 17.4133 19.4842 17.4133 17.7498C17.4133 15.2495 15.3206 13.2116 12.7197 13.2116H1.46379C0.985455 13.2116 0.507118 13.0238 0.223106 12.6624C-0.240283 12.0699 -0.165543 11.2894 0.357638 10.7836L11.1352 0.363078C11.7032 -0.18613 12.6449 -0.18613 13.2129 0.363078L21.9426 8.41331C22.4807 8.93361 22.5854 9.80078 22.107 10.3789C21.5539 11.0437 20.5375 11.0726 19.9246 10.4945L12.1666 3.38372L4.93173 10.3789H12.7197C16.935 10.3789 20.3432 13.6741 20.3432 17.7498C20.3432 21.0595 17.5778 23.7333 14.1696 23.7333Z" fill="#6AB543"/>
</g>
<defs>
<clipPath id="clip0_2_4238">
<rect width="110" height="24" fill="white"/>
</clipPath>
</defs>
</svg>
