<svg width="76" height="24" viewBox="0 0 76 24" fill="none" xmlns="http://www.w3.org/2000/svg">
<g clip-path="url(#clip0_49_7407)">
<path d="M75.5 24.066H0.5V18.5508H1.62813V22.8788H74.3719V18.5508H75.5V24.066Z" fill="#B9C0C0"/>
<path d="M16.8298 18.3711L16.8118 9.97017L12.6698 16.9227H11.6252L7.48313 10.0788V18.3711H5.25V5.69727H7.17697L12.1835 14.0982L17.0999 5.69727H19.0269L19.0449 18.3711H16.8298Z" fill="#B9C0C0"/>
<path d="M30.6271 15.436H24.3237L23.0812 18.3692H20.668L26.3408 5.69531H28.646L34.3369 18.3692H31.8877L30.6271 15.436ZM29.8526 13.5893L27.4755 8.04903L25.1164 13.5893H29.8526Z" fill="#B9C0C0"/>
<path d="M37.8635 7.68887H33.6855V5.69727H44.3828V7.68887H40.2048V18.3711H37.8635V7.68887Z" fill="#B9C0C0"/>
<path d="M51.7979 18.5516C50.5253 18.5516 49.3728 18.274 48.3402 17.7187C47.3198 17.1515 46.5153 16.3728 45.9269 15.3831C45.3505 14.3933 45.0625 13.2768 45.0625 12.0336C45.0625 10.7904 45.3567 9.67384 45.945 8.68409C46.5334 7.69431 47.3376 6.92182 48.358 6.36657C49.3907 5.79928 50.5432 5.51562 51.816 5.51562C52.8484 5.51562 53.7909 5.69668 54.6432 6.0588C55.4957 6.42089 56.2161 6.94596 56.8044 7.63397L55.2916 9.06431C54.3792 8.07453 53.2566 7.57965 51.9239 7.57965C51.0596 7.57965 50.2851 7.77278 49.6009 8.15903C48.9164 8.53321 48.3821 9.05826 47.998 9.73421C47.6138 10.4101 47.4216 11.1766 47.4216 12.0336C47.4216 12.8906 47.6138 13.6571 47.998 14.333C48.3821 15.009 48.9164 15.54 49.6009 15.9262C50.2851 16.3005 51.0596 16.4876 51.9239 16.4876C53.2566 16.4876 54.3792 15.9867 55.2916 14.9847L56.8044 16.4332C56.2161 17.1212 55.4896 17.6463 54.6252 18.0084C53.7728 18.3706 52.8305 18.5516 51.7979 18.5516Z" fill="#B9C0C0"/>
<path d="M70.2486 5.69531V18.3692H67.9075V12.9375H61.3882V18.3692H59.0469V5.69531H61.3882V10.9278H67.9075V5.69531H70.2486Z" fill="#B9C0C0"/>
<path d="M75.5 5.5152H74.3719V1.18709H1.62813V5.5152H0.5V0H75.5V5.5152Z" fill="#B9C0C0"/>
</g>
<defs>
<clipPath id="clip0_49_7407">
<rect width="75" height="24" fill="white" transform="translate(0.5)"/>
</clipPath>
</defs>
</svg>
