<svg width="16" height="16" viewBox="0 0 16 16" fill="none" xmlns="http://www.w3.org/2000/svg">
<path d="M15 7.09886C14.9985 7.31014 14.9291 7.51534 14.802 7.68415C14.6749 7.85296 14.497 7.97644 14.2944 8.03636L9.50936 9.50886L8.03686 14.2939C7.97685 14.4964 7.85334 14.6743 7.68455 14.8014C7.51576 14.9284 7.31061 14.9979 7.09936 14.9995H7.08061C6.87345 15.0014 6.67094 14.938 6.50186 14.8183C6.33278 14.6986 6.20572 14.5287 6.13873 14.3326L2.06248 3.33824C2.06116 3.335 2.06012 3.33165 2.05936 3.32824C1.99842 3.15126 1.98838 2.96073 2.03038 2.77833C2.07237 2.59592 2.16472 2.42897 2.29691 2.29645C2.4291 2.16393 2.59583 2.07118 2.77813 2.02873C2.96043 1.98629 3.15098 1.99586 3.32811 2.05636L3.33811 2.05949L14.3331 6.13824C14.5322 6.20629 14.7043 6.33622 14.8243 6.50905C14.9443 6.68188 15.0058 6.88855 15 7.09886Z" fill="white"/>
</svg>
