<svg width="40" height="40" viewBox="0 0 40 40" fill="none" xmlns="http://www.w3.org/2000/svg">
<rect width="40" height="40" rx="20" fill="#FF7700"/>
<path d="M12.1144 20.9544C11.4503 22.2598 12.2043 22.8838 13.9246 23.9498C15.3871 24.8533 17.4076 25.1838 18.7054 25.3159L13.591 30.2353C12.1025 31.6621 14.4988 33.9512 15.9862 32.5548L20.013 28.671C21.5546 30.1541 23.0322 31.5754 24.0397 32.5602C25.5282 33.962 27.9235 31.6924 26.4512 30.2407C26.3407 30.1357 20.9945 25.0072 21.3206 25.3213C22.6346 25.1892 24.6247 24.8393 26.0699 23.9553L26.0688 23.9542C27.7891 22.8827 28.5431 22.2598 27.8888 20.9544C27.4934 20.2134 26.4274 19.5938 25.0082 20.6652C25.0082 20.6652 23.0918 22.1331 20.0011 22.1331C16.9092 22.1331 14.9939 20.6652 14.9939 20.6652C13.5758 19.5883 12.5055 20.2134 12.1144 20.9544Z" fill="white"/>
<path d="M19.9989 20.1538C23.7667 20.1538 26.8434 17.2093 26.8434 13.5845C26.8434 9.9445 23.7667 7 19.9989 7C16.23 7 13.1533 9.9445 13.1533 13.5845C13.1533 17.2093 16.23 20.1538 19.9989 20.1538ZM19.9989 10.3356C21.8503 10.3356 23.3605 11.7883 23.3605 13.5845C23.3605 15.3655 21.8503 16.8182 19.9989 16.8182C18.1475 16.8182 16.6373 15.3655 16.6373 13.5845C16.6362 11.7873 18.1464 10.3356 19.9989 10.3356Z" fill="white"/>
</svg>
