<svg width="40" height="40" viewBox="0 0 40 40" fill="none" xmlns="http://www.w3.org/2000/svg">
<rect width="40" height="40" rx="20" fill="#2DA5E1"/>
<path d="M7.72133 19.1455C7.72133 19.1455 18.336 14.5357 22.0174 12.9125C23.4285 12.2631 28.2143 10.1854 28.2143 10.1854C28.2143 10.1854 30.4232 9.27637 30.2391 11.484C30.1778 12.3931 29.6868 15.5745 29.1961 19.0157C28.4599 23.8852 27.6622 29.2094 27.6622 29.2094C27.6622 29.2094 27.5396 30.7027 26.4964 30.9626C25.4533 31.2223 23.7354 30.0538 23.4287 29.7939C23.1833 29.5992 18.8269 26.6774 17.2318 25.249C16.8022 24.8595 16.3114 24.0802 17.2931 23.1714C19.5019 21.0288 22.1403 18.3668 23.7354 16.6787C24.4717 15.8994 25.2079 14.0815 22.1402 16.289C17.7839 19.4704 13.4889 22.4572 13.4889 22.4572C13.4889 22.4572 12.5071 23.1065 10.6666 22.5221C8.82594 21.9378 6.67838 21.1585 6.67838 21.1585C6.67838 21.1585 5.20574 20.1843 7.72133 19.1455Z" fill="white"/>
</svg>
