<svg width="40" height="40" viewBox="0 0 40 40" fill="none" xmlns="http://www.w3.org/2000/svg">
<rect width="40" height="40" rx="20" fill="#2BB741"/>
<path d="M20.003 8H19.997C13.3805 8 8 13.382 8 20C8 22.625 8.846 25.058 10.2845 27.0335L8.789 31.4915L13.4015 30.017C15.299 31.274 17.5625 32 20.003 32C26.6195 32 32 26.6165 32 20C32 13.3835 26.6195 8 20.003 8ZM26.9855 24.9455C26.696 25.763 25.547 26.441 24.6305 26.639C24.0035 26.7725 23.1845 26.879 20.4275 25.736C16.901 24.275 14.63 20.6915 14.453 20.459C14.2835 20.2265 13.028 18.5615 13.028 16.8395C13.028 15.1175 13.9025 14.279 14.255 13.919C14.5445 13.6235 15.023 13.4885 15.482 13.4885C15.6305 13.4885 15.764 13.496 15.884 13.502C16.2365 13.517 16.4135 13.538 16.646 14.0945C16.9355 14.792 17.6405 16.514 17.7245 16.691C17.81 16.868 17.8955 17.108 17.7755 17.3405C17.663 17.5805 17.564 17.687 17.387 17.891C17.21 18.095 17.042 18.251 16.865 18.47C16.703 18.6605 16.52 18.8645 16.724 19.217C16.928 19.562 17.633 20.7125 18.671 21.6365C20.0105 22.829 21.0965 23.21 21.485 23.372C21.7745 23.492 22.1195 23.4635 22.331 23.2385C22.5995 22.949 22.931 22.469 23.2685 21.9965C23.5085 21.6575 23.8115 21.6155 24.1295 21.7355C24.4535 21.848 26.168 22.6955 26.5205 22.871C26.873 23.048 27.1055 23.132 27.191 23.2805C27.275 23.429 27.275 24.1265 26.9855 24.9455Z" fill="white"/>
</svg>
