<svg width="40" height="40" viewBox="0 0 40 40" fill="none" xmlns="http://www.w3.org/2000/svg">
<rect width="40" height="40" rx="20" fill="#FF0000"/>
<path fill-rule="evenodd" clip-rule="evenodd" d="M32.5097 11.5316C32.9441 11.9747 33.2569 12.5262 33.4169 13.1312C33.9931 15.3573 34 20.0047 34 20.0047C34 20.0047 34 24.6521 33.4169 26.8782C33.2569 27.4832 32.9441 28.0347 32.5097 28.4778C32.0753 28.9208 31.5345 29.2398 30.9414 29.4029C28.7586 30 20 30 20 30C20 30 11.2437 30 9.06092 29.4029C8.46755 29.2402 7.92653 28.9214 7.49207 28.4783C7.0576 28.0352 6.74495 27.4834 6.58544 26.8782C6 24.6521 6 20.0047 6 20.0047C6 20.0047 6 15.3573 6.58544 13.1312C6.74354 12.5243 7.05556 11.9706 7.49012 11.5257C7.92468 11.0809 8.46645 10.7606 9.06092 10.5971C11.2414 10 20 10 20 10C20 10 28.7563 10 30.9414 10.6065C31.5345 10.7696 32.0753 11.0886 32.5097 11.5316ZM24.4758 20.0047L17.1992 24.2877V15.7217L24.4758 20.0047Z" fill="white"/>
</svg>
