<?xml version="1.0" standalone="no"?>
<!DOCTYPE svg PUBLIC "-//W3C//DTD SVG 20010904//EN"
 "http://www.w3.org/TR/2001/REC-SVG-20010904/DTD/svg10.dtd">
<svg version="1.0" xmlns="http://www.w3.org/2000/svg"
 width="700.000000pt" height="700.000000pt" viewBox="0 0 700.000000 700.000000"
 preserveAspectRatio="xMidYMid meet">
<metadata>
Created by potrace 1.14, written by Peter Selinger 2001-2017
</metadata>
<g transform="translate(0.000000,700.000000) scale(0.100000,-0.100000)"
fill="#000000" stroke="none">
<path d="M3436 6963 c-46 -27 -944 -535 -1106 -626 -19 -10 -64 -36 -100 -57
-36 -20 -85 -48 -110 -62 -25 -14 -166 -94 -315 -178 -148 -84 -286 -162 -305
-173 -232 -130 -296 -167 -358 -204 -40 -23 -74 -43 -76 -43 -2 0 -48 -25
-102 -56 -55 -31 -124 -70 -154 -87 -30 -17 -131 -74 -225 -127 l-170 -97 -3
-1749 -2 -1749 57 -33 c32 -17 83 -46 113 -63 30 -17 159 -89 285 -161 127
-72 286 -162 355 -201 69 -39 146 -83 173 -99 26 -15 49 -28 51 -28 3 0 37
-19 78 -43 40 -24 100 -59 133 -77 33 -18 89 -50 125 -70 36 -21 68 -37 71
-36 4 0 15 -6 25 -15 11 -9 44 -30 74 -46 30 -17 73 -40 95 -53 22 -12 81 -45
130 -72 50 -28 102 -59 117 -69 15 -11 29 -19 32 -19 2 0 105 -57 228 -127
122 -69 241 -136 263 -149 80 -44 271 -152 323 -183 29 -17 55 -31 58 -31 2 0
23 -11 45 -26 44 -28 66 -40 183 -104 59 -32 83 -40 95 -33 9 6 90 52 181 103
91 51 179 101 195 110 17 9 100 56 185 105 85 48 184 103 220 123 36 19 72 41
81 48 8 8 18 14 21 14 4 0 38 18 77 40 38 22 87 49 108 61 21 12 104 59 186
105 289 165 587 333 717 406 25 14 109 62 188 107 78 44 147 81 152 81 6 0 10
4 10 9 0 5 6 11 13 13 11 3 152 80 237 130 19 11 125 71 235 133 110 62 215
121 232 131 l33 19 -3 1749 -2 1750 -210 119 c-115 65 -232 131 -260 146 -27
16 -167 95 -310 176 -143 82 -280 159 -305 173 -98 55 -509 287 -570 322 -36
21 -87 50 -115 65 -27 15 -76 43 -108 61 -32 19 -60 34 -62 34 -1 0 -32 17
-66 38 -35 21 -89 52 -119 69 -30 16 -71 39 -90 50 -19 11 -125 71 -235 133
-221 125 -248 140 -302 171 -21 12 -94 53 -163 92 -69 38 -129 73 -135 77 -26
18 -45 15 -99 -17z"/>
</g>
</svg>
